Format : AVI
Format/Info : Audio Video Interleave
File size : 1.36 GiB
Duration : 1h 51mn
Overall bit rate : 1 744 Kbps
Writing library : VirtualDub build 32839/release

Video
ID : 0
Format : MPEG-4 Visual
Format profile : Advanced Simple@L5
Format settings, BVOP : Yes
Format settings, QPel : No
Format settings, GMC : No warppoints
Format settings, Matrix : Custom
Codec ID : XVID
Codec ID/Hint : XviD
Duration : 1h 51mn
Bit rate : 1 543 Kbps
Width : 720 pixels
Height : 304 pixels
Display aspect ratio : 2.35:1
Frame rate : 23.976 fps
Color space : YUV
Chroma subsampling : 4:2:0
Bit depth : 8 bits
Scan type : Progressive
Bits/(Pixel*Frame) : 0.294
Stream size : 1.20 GiB (88%)
Writing library : XviD 1.2.1 (UTC 2008-12-04)

Audio
ID : 1
Format : MPEG Audio
Format version : Version 1
Format profile : Layer 3
Codec ID : 55
Codec ID/Hint : MP3
Duration : 1h 51mn
Bit rate mode : Constant
Bit rate : 192 Kbps
Channel(s) : 2 channels
Sampling rate : 44.1 KHz
Stream size : 153 MiB (11%)
Alignment : Split accross interleaves
Interleave, duration : 42 ms (1.00 video frame)
Interleave, preload duration : 500 ms



 
http://www.imdb.com/title/tt0964517/




A look at the early years of boxer \"Irish\" Micky Ward and his brother who helped train him before going pro in the mid 1980s.
Director:
David O. Russell
Writers:
Scott Silver (screenplay), Paul Tamasy (screenplay), and 4 more credits »
Stars:
Mark Wahlberg, Christian Bale and Amy Adams 


Thanks once again to IMAGINE for the source...Ran my usual filters through this ,done what i can with it,Before we get the stupid comments saying this is a cam its not its as stated a screener vhs aint dvd quality.Enjoy if you want it



Greetz to Imagine ,Flawl3ss ,Santi ,Vision ,Kingdom,BDK,DiGiTALiNK,LEGION,Classified,THC,WBZ,Rx ,Feel Free and to all who share